<svg width="800" height="800" viewBox="0 0 800 800" fill="none" xmlns="http://www.w3.org/2000/svg">
  <rect width="800" height="800" fill="#0B1020"/>
  <rect x="72" y="72" width="656" height="656" rx="18" fill="#10182B" stroke="#273552" stroke-width="4"/>
  <rect x="72" y="72" width="656" height="72" rx="18" fill="#16213A"/>
  <circle cx="124" cy="108" r="10" fill="#FF7B72"/>
  <circle cx="156" cy="108" r="10" fill="#F2CC60"/>
  <circle cx="188" cy="108" r="10" fill="#7EE787"/>
  <rect x="120" y="192" width="240" height="18" rx="9" fill="#4FD1C5" fill-opacity="0.9"/>
  <rect x="120" y="232" width="370" height="14" rx="7" fill="#8DA0BE" fill-opacity="0.7"/>
  <rect x="120" y="260" width="420" height="14" rx="7" fill="#8DA0BE" fill-opacity="0.45"/>
  <rect x="120" y="330" width="520" height="170" rx="12" fill="#0B1020" stroke="#273552"/>
  <rect x="148" y="360" width="120" height="14" rx="7" fill="#7EE787" fill-opacity="0.8"/>
  <rect x="148" y="392" width="312" height="12" rx="6" fill="#4FD1C5" fill-opacity="0.65"/>
  <rect x="148" y="420" width="260" height="12" rx="6" fill="#8DA0BE" fill-opacity="0.55"/>
  <rect x="148" y="448" width="342" height="12" rx="6" fill="#8DA0BE" fill-opacity="0.4"/>
  <rect x="120" y="548" width="190" height="16" rx="8" fill="#FF7B72" fill-opacity="0.85"/>
  <rect x="120" y="584" width="284" height="12" rx="6" fill="#8DA0BE" fill-opacity="0.55"/>
  <rect x="120" y="612" width="220" height="12" rx="6" fill="#8DA0BE" fill-opacity="0.35"/>
</svg>
